<?xml version="1.0" encoding="UTF-8"?>
<svg xmlns="http://www.w3.org/2000/svg" color="#fff" id="Icons" viewBox="0 0 74 74" width="512" height="512"><path d="M20.51,50.54a1,1,0,0,1-.727-.313c-.689-.73-1.357-1.469-2.005-2.208a1,1,0,0,1,1.5-1.318c.632.72,1.284,1.442,1.955,2.153a1,1,0,0,1-.727,1.686Z"/><path d="M56.9,72c-6.483,0-15.334-3.789-24.284-10.4A1,1,0,1,1,33.8,60C42.417,66.354,50.836,70,56.9,70a8.435,8.435,0,0,0,6.2-2.147l6.69-6.69a.719.719,0,0,0,0-1.016l-13.38-13.38a.738.738,0,0,0-1.016,0l-4.87,4.87c-3.517,3.517-12.461.092-20.363-7.8s-11.319-16.847-7.8-20.364l4.87-4.87a.722.722,0,0,0,0-1.016L13.853,4.207a.719.719,0,0,0-1.016,0L6.147,10.9c-4.845,4.845-1.268,17.361,8.7,30.436a1,1,0,1,1-1.591,1.213C2.5,28.431-.929,15.144,4.733,9.483l6.69-6.69a2.723,2.723,0,0,1,3.844,0l13.38,13.38a2.721,2.721,0,0,1,0,3.844l-4.87,4.87c-2.3,2.3.34,10.066,7.8,17.536s15.235,10.1,17.535,7.8l4.87-4.87a2.784,2.784,0,0,1,3.844,0l13.38,13.38a2.721,2.721,0,0,1,0,3.844l-6.69,6.69A10.338,10.338,0,0,1,56.9,72Z"/><path d="M27.7,57.41a.993.993,0,0,1-.648-.239c-.75-.638-1.489-1.306-2.228-1.984a1,1,0,1,1,1.352-1.474c.721.662,1.442,1.313,2.173,1.936A1,1,0,0,1,27.7,57.41Z"/><path d="M23.072,25.176a1,1,0,0,1-.707-.293L6.557,9.075A1,1,0,1,1,7.971,7.661L23.779,23.469a1,1,0,0,1-.707,1.707Z"/><path d="M65.632,67.736a1,1,0,0,1-.707-.293L49.117,51.635a1,1,0,0,1,1.414-1.414L66.339,66.029a1,1,0,0,1-.707,1.707Z"/><path d="M67,36a1,1,0,0,1-1-1A27.03,27.03,0,0,0,39,8a1,1,0,0,1,0-2A29.032,29.032,0,0,1,68,35,1,1,0,0,1,67,36Z"/><path d="M59.246,36a1,1,0,0,1-1-1A19.268,19.268,0,0,0,39,15.754a1,1,0,0,1,0-2A21.27,21.27,0,0,1,60.246,35,1,1,0,0,1,59.246,36Z"/><path d="M51.492,36a1,1,0,0,1-1-1A11.5,11.5,0,0,0,39,23.508a1,1,0,0,1,0-2A13.508,13.508,0,0,1,52.492,35,1,1,0,0,1,51.492,36Z"/></svg>
